<svg xmlns="http://www.w3.org/2000/svg" width="183" height="48" viewBox="0 0 183 48" fill="none">
  <path d="M75.5065 24.8171V24.5072L75.2327 24.1974V23.141L74.5755 22.7185L74.4797 22.5354C74.0437 21.9002 73.5534 21.3062 73.0147 20.7608L72.9189 20.1833L72.0426 19.4791H71.5909L70.8789 18.803L69.811 17.9439H69.5235C69.5235 17.9439 69.4003 17.9439 69.0854 17.6903L68.7431 17.5354C68.3385 17.114 67.8405 16.7998 67.2919 16.6199C66.9424 16.3664 66.5282 16.2243 66.1008 16.2115L65.8132 16.0988H65.5805L65.3066 15.9016L64.6495 14.8734L63.5268 15.0424L61.8702 14.5495H61.2815L61.1035 14.127L60.3505 14.296L59.7892 14.4227C59.601 14.3286 59.3958 14.2758 59.1868 14.2678C58.606 14.2751 58.0294 14.37 57.4754 14.5495C56.7252 14.6228 56.0278 14.979 55.5176 15.5495L55.0794 15.9579L55.408 17.6762C55.7503 19.3382 56.5717 19.6903 57.2426 19.6903L58.3515 19.5917V19.8312L58.6254 20.7889V21.0284V22.0002L58.7623 23.7889L58.2147 25.0565L58.5432 25.6058V26.5354L58.4337 27.0424L58.5158 28.5354C58.482 28.6511 58.4546 28.7686 58.4337 28.8875C58.0454 29.075 57.6931 29.3326 57.3932 29.6481L56.517 30.5636L57.051 32.3523L58.1462 33.2115H58.8445L58.6938 34.7326H60.0629L60.9392 35.5917L62.5137 33.4932L62.8286 32.7044L63.6227 32.9016L64.0608 32.3946L64.2388 32.465L64.8412 32.2819C65.4139 32.3273 65.9892 32.2407 66.5252 32.0284C67.0184 32.0311 67.5087 31.9502 67.9764 31.7889H68.2776L68.4693 31.7044H69.0717L69.2771 31.5636H69.3729C69.9275 31.5788 70.4698 31.3945 70.9063 31.0424H71.8236L72.0153 30.7044L72.6177 30.3241L73.7267 29.9579L73.9731 29.5777L74.7124 29.2115L75.0137 28.4509L75.6571 27.4509L75.7941 26.803L75.9447 26.3805L76.0131 25.8593C75.9412 25.4704 75.7658 25.1096 75.5065 24.8171ZM69.6194 27.0002C69.3632 26.9632 69.1024 26.9804 68.8528 27.0506C68.6033 27.1208 68.3703 27.2427 68.1681 27.4086L67.908 27.4791H67.5383L67.1823 27.5917H66.7169L65.868 27.6622L65.6352 27.7467H65.5394C65.3137 27.9024 65.0636 28.0167 64.8001 28.0847C64.184 27.8936 63.5268 27.8936 62.9107 28.0847H62.7875V27.3664L62.7054 27.2115L62.9791 26.803L62.719 25.8312L63.1571 24.4227L62.8697 24.127C62.8818 24.0005 62.8818 23.8731 62.8697 23.7467V23.1129L63.3214 22.9157L63.0066 21.31V20.8734C63.0012 20.6634 62.9689 20.4551 62.9107 20.2537L63.075 20.0424C63.3784 20.2602 63.7472 20.3601 64.1155 20.3241L64.3757 20.5072H64.7453C65.126 20.8481 65.61 21.0422 66.1145 21.0565L67.8121 22.0988L68.1407 22.7748L69.0307 23.0706V23.3523L69.3044 23.5777C69.5351 23.7657 69.7827 23.9308 70.0438 24.0706L70.4819 25.2819H70.9337L71.4402 25.9861L71.3308 26.0706H71.2212L70.7694 26.4509L70.0164 26.2396L69.6194 27.0002Z" fill="#CEB071"/>
  <path d="M99.0004 32.3523L98.7677 31.7467L98.1516 31.3946L97.6177 30.7185L96.892 29.4368V29.1551L96.1116 27.9016V27.3805L95.9337 27.0002H96.2759L96.6319 26.8593L97.4397 26.9861L98.1927 26.3664L98.5623 26.5072L98.9594 26.2819C99.2564 26.1056 99.502 25.8505 99.6705 25.5434C99.8391 25.2362 99.9245 24.8881 99.9178 24.5354C99.9138 24.3114 99.8816 24.0889 99.822 23.8734L99.6577 23.0847L98.2886 22.9861C97.9592 22.745 97.5684 22.6085 97.1645 22.5935C96.7605 22.5785 96.3612 22.6856 96.0158 22.9016H94.9753V21.5777L95.0438 21.4368L94.2497 20.3382L93.9484 18.8171L93.4556 17.8875L93.3324 17.3241C93.273 16.7349 93.0654 16.1718 92.73 15.6903L92.5793 15.4227L92.4699 14.2396L91.3061 13.5354L90.0876 12.127L88.9786 13.1974C88.3676 13.5157 87.8554 14.0036 87.5 14.6058L87.1714 15.0565L87.3083 15.5354V15.7185L87.0619 16.0706H86.2814V17.0847L85.6516 18.4932H85.4463L85.2957 18.803L84.5564 19.0424V19.8593C84.5587 19.989 84.5299 20.1172 84.4726 20.2326C84.4153 20.3481 84.3312 20.4473 84.2278 20.5213L84.0088 20.803C83.9247 20.9878 83.8604 21.1814 83.8171 21.3805L82.8724 21.9579L82.8039 22.6903C82.6617 22.8386 82.5375 23.0041 82.4343 23.1833L80.6681 23.0143V24.4227L79.9288 25.1129L80.052 25.7467C80.0995 25.9766 80.1636 26.2026 80.2437 26.4227L79.9699 26.8875L79.2853 27.1551L79.1484 27.7185C79.1232 27.8921 79.0595 28.0574 78.9622 28.2015C78.8648 28.3457 78.7365 28.4647 78.5871 28.5495L78.2037 28.7748L78.0668 28.9579L77.4644 29.1692L77.3822 29.8312L75.8351 30.0847L75.7393 31.3241L75.5887 31.5495V32.1974L75 33.6058L75.5613 34.127C76.0172 34.6033 76.6367 34.8765 77.2864 34.8875C77.5216 34.8769 77.7554 34.8439 77.9846 34.7889L79.6276 33.803L80.0793 33.0143L81.2157 31.4791C81.5032 31.3241 81.8593 30.972 82.8039 29.4368L83.2421 29.3101L83.4337 29.0284C83.5706 28.8453 83.7486 28.5917 83.9677 28.2537L84.3647 28.7044L85.5285 28.0988C85.7451 28.1443 85.9648 28.1726 86.1856 28.1833L86.8565 28.4791L87.4863 28.0706L88.253 28.1833L88.9512 27.7748H89.2524L89.5947 28.6481L90.3751 28.0847L90.4983 28.2396L91.4567 27.6058L91.5662 28.5213L91.9222 29.0143L92.5109 30.5213L92.8669 31.0002L92.9353 31.5917L93.127 31.7748V31.9861L93.8116 32.8171L94.3181 33.8312L94.633 34.0143L95.1395 34.972H95.8652L96.2622 35.3241H96.7141L98.0147 36.0284L98.398 35.8875C98.8556 35.7402 99.2553 35.446 99.5386 35.0481C99.8219 34.6502 99.974 34.1695 99.9725 33.6762V33.0565L99.0004 32.3523ZM90.6078 23.3241L89.3208 23.5354C88.9788 23.5158 88.636 23.5158 88.294 23.5354H87.6643C87.4603 23.4377 87.2435 23.3712 87.0207 23.3382C87.2909 22.9017 87.4984 22.4273 87.6369 21.9298L88.5952 21.3946L88.8143 20.1551L89.3208 19.5636L89.4167 19.4227V20.0565H89.9096L90.334 20.972L90.6078 23.3241Z" fill="#CEB071"/>
  <path d="M132.01 15.5209L131.106 14.4646C130.922 14.2309 130.69 14.0408 130.428 13.9071C130.166 13.7734 129.879 13.6994 129.586 13.6899C129.236 13.6973 128.895 13.8003 128.596 13.9885C128.298 14.1766 128.054 14.443 127.889 14.7604L127.711 15.3378L127.204 16.1547V16.6759C127.208 17.0436 127.263 17.4088 127.368 17.7604C127.36 17.8069 127.36 17.8547 127.368 17.9012L126.739 19.3097L126.958 19.6477L126.615 20.4505L126.164 20.9857L125.739 21.9435L125.219 22.7322L124.644 23.8308L123.85 24.7463L123.384 25.535C123.196 25.6314 123.024 25.76 122.878 25.9153L122.618 26.2252V26.3942L122.221 26.9012L122.07 27.3942L121.906 26.9716L121.632 26.5773L121.194 25.5068C121.074 24.7196 120.853 23.9523 120.537 23.2252L120.454 22.8871L120.331 22.6336V22.2815L119.564 20.0843V18.4928L119.414 17.0843L118.592 16.6759L117.894 15.873H116.21L115.977 16.2392L115.676 16.5209L115.074 17.0139L114.745 17.2815L114.581 18.4082L114.239 18.8871H114.047L113.828 19.3942H113.376L113.075 20.5209L112.705 20.8167L112.568 21.366C112.568 21.6477 112.404 21.6899 112.322 21.7181L111.829 21.8871L111.665 22.5209L111.418 22.7463C111.278 22.841 111.163 22.9707 111.084 23.1233C111.005 23.276 110.964 23.4466 110.966 23.6195C110.974 23.7086 110.974 23.7981 110.966 23.8871L110.501 24.0843L110.186 24.9998L109.392 25.8449L109.324 26.2533L109.009 26.4787L108.817 26.9435C108.705 26.9942 108.61 27.0774 108.543 27.1829L108.365 27.4223L108.187 27.5491V27.2533L107.913 26.5632V25.3942L107.489 25.2111L107.352 24.5773L107.215 24.2252L106.818 22.1125L106.53 21.4364L106.202 18.8308V18.6336L106.53 17.5632L106.284 17.2111C106.239 16.2585 105.831 15.3627 105.148 14.7181L104.86 14.535C104.512 14.3857 104.142 14.2999 103.765 14.2815C103.327 14.2815 102.259 14.4646 101.889 16.0984L101.259 17.9857L101.766 18.6759L101.848 19.4505V20.1125L102.136 21.2533V21.3942L102.998 24.2111V24.5209L103.382 26.1266L103.683 26.8167L103.751 27.3801L104.367 28.7885L104.723 30.197L105.613 31.8871L105.873 32.5068L106.777 33.9153L106.914 34.0702C107.108 34.2822 107.341 34.4523 107.6 34.5708C107.858 34.6893 108.137 34.7537 108.42 34.7604C108.874 34.787 109.322 34.6389 109.676 34.3447C110.031 34.0506 110.266 33.6315 110.337 33.1688L111.309 33.0561L110.912 32.2815L111.281 31.4505L111.473 31.2392L111.61 30.9153H112.281V30.028C112.372 29.781 112.409 29.5167 112.39 29.2533C112.39 29.1406 112.39 28.9716 112.39 29.0421L112.459 28.9153L114.17 26.6477C114.453 26.3522 114.66 25.9893 114.773 25.5914C114.773 25.5068 114.773 25.4364 114.773 25.4505L114.951 25.2533H115.074L115.443 24.7604C115.626 24.6559 115.785 24.5128 115.911 24.3404C116.036 24.1681 116.124 23.9704 116.169 23.7604L116.388 24.2252L116.676 25.9435L116.963 26.1829V26.3519L117.524 27.4364C117.587 27.5171 117.625 27.6151 117.634 27.7181L117.73 28.0561C117.93 28.4732 118.108 28.9011 118.264 29.3378L118.661 30.3801L119.072 30.8167V31.3519L119.866 32.8449L120.509 34.5914L121.769 35.197H122.084C122.405 35.2092 122.724 35.1416 123.015 34.9998C123.403 34.8933 123.758 34.6857 124.046 34.3971C124.334 34.1085 124.544 33.7486 124.658 33.3519L124.74 33.0984L124.548 32.0561L124.616 31.7744V31.2815L124.781 31.0702L125.082 30.2674L125.78 29.2674L125.89 29.028L126.164 28.7744L126.588 27.7463L126.752 27.6618L126.862 27.4505L127.382 27.2533L127.943 25.8449L128.477 25.1688L128.847 24.2674L130.216 22.2674V22.1125L130.736 20.8167C131.462 19.0702 131.462 19.0702 131.462 18.8026C131.451 18.7138 131.451 18.6238 131.462 18.535C131.682 18.1405 131.8 17.6942 131.804 17.2392C131.82 17.0753 131.82 16.9102 131.804 16.7463L132.01 15.5209Z" fill="#CEB071"/>
  <path d="M160.501 19.9012H157.311C156.872 19.718 156.381 19.718 155.942 19.9012H155.326H155.107H154.49L153.833 20.0843V19.4364V19.1406L154.093 18.4505L153.888 17.6758V17.38L153.751 16.8167V13.4505L153.299 13.5631V13.042L151.725 13.4646L149.699 12.9012L149.26 14.4082C149.084 14.538 148.937 14.7062 148.83 14.9009C148.724 15.0957 148.66 15.3121 148.644 15.535C148.618 15.6217 148.586 15.7064 148.549 15.7885L148.302 16.366L148.617 16.8448L149.096 18.2533L148.932 18.6054L149.151 20.0139L149.028 20.3237L146.358 20.6758H145.961H145.523L144.77 20.211L144.03 20.6617H143.332H141.963L141.662 20.535L140.731 20.6617H140.567L140.279 19.9716C140.389 19.382 140.444 18.7831 140.443 18.1829C140.465 17.8123 140.465 17.4408 140.443 17.0702C140.443 16.8167 140.567 16.5913 140.635 16.3519L140.799 15.8589L140.389 15.1688L140.238 13.9998L139.184 13.5913L138.225 12.7744L136.076 14.1124L135.569 16.0843V17.0561L135.638 17.5491L134.775 17.0561L135.446 19.5209C135.525 19.8434 135.566 20.1743 135.569 20.5068C135.585 20.7413 135.585 20.9766 135.569 21.211L134.584 21.8589L134.734 24.8026L135.378 25.211L135.528 28.211V28.5068V28.6899C135.384 29.0321 135.309 29.4013 135.309 29.7744L135.528 30.5631L135.898 31.1547C135.994 33.9716 137.267 34.4364 138.116 34.4364C138.354 34.439 138.591 34.3907 138.81 34.2945C139.03 34.1984 139.227 34.0565 139.391 33.8778C139.554 33.6991 139.679 33.4876 139.759 33.2564C139.839 33.0253 139.872 32.7797 139.855 32.535V32.3801L140.046 31.9716L139.704 31.0843L139.827 30.2392L139.636 29.7744L139.814 28.366L139.677 28.0139L139.814 27.6336L139.704 26.8308L139.786 26.042V25.6195L141.155 26.211L141.279 25.6054L141.867 25.4646L142.456 25.9434L143.524 25.4082H143.688C143.939 25.3074 144.201 25.2411 144.469 25.211H145.112L146.714 25.4082L148.015 24.9575C148.379 24.9961 148.746 24.9961 149.11 24.9575C149.046 25.2586 149.009 25.565 149 25.873V26.5209L148.904 27.366V28.5068L148.809 29.9153V30.7885L148.658 30.9153L148.987 32.2392V33.3096L149.247 34.3378L149.438 34.7181L149.562 36.2674H150.506C150.8 36.2963 151.096 36.2648 151.378 36.1745C151.66 36.0842 151.921 35.9371 152.146 35.7416C152.372 35.5462 152.558 35.3065 152.692 35.0364C152.827 34.7663 152.907 34.4714 152.93 34.1688C153.002 33.9675 153.057 33.7601 153.094 33.5491V32.5491L152.93 32.197C152.939 32.0281 152.939 31.8588 152.93 31.6899L153.217 29.5632V28.8026L153.546 28.5068L153.436 27.8871C153.436 27.7322 153.436 27.5631 153.327 27.3378C153.391 26.9423 153.405 26.5398 153.368 26.1406V26.0139C153.368 25.7744 153.368 25.5632 153.368 25.366V25.1124L153.464 24.6617L154.066 24.2392H154.148L154.901 24.7462L155.654 24.0279H156.174L156.489 23.7181H157.037L159.31 22.0561L158.885 21.4646L160.501 19.9012Z" fill="#CEB071"/>
  <path d="M181.804 20.5071L181.256 19.6762L180.271 17.8311L179.764 17.5916L179.422 16.5776L177.012 15.3804L176.163 15.2959L175.917 14.9719H175.492L174.466 13.5635L173.986 14.5916H173.261H171.385L170.276 14.4367L169.345 14.5916C168.712 14.6483 168.09 14.7952 167.497 15.0283H167.374L167.155 15.2536C166.863 15.39 166.587 15.5601 166.333 15.7607L165.32 16.0001V16.9578L165.211 17.0846L165.046 17.3381L164.745 17.5071L163.294 19.9297L162.828 21.0564L161.925 21.7888L162.198 22.4931V22.7888L162.061 23.0846V23.2818L161.637 23.8593L161.541 25.7747L161.144 27.1832V29.2959L161.336 29.5494V30.0987L161.856 31.7747L162.815 32.2677L162.993 32.479V33.5353H164.485L164.786 33.6902L165.95 33.9438L166.1 34.1269L167.469 34.324H168.058L169.701 33.986H171.152L171.44 33.7325L171.905 34.0142L172.795 33.1973C172.958 33.1573 173.114 33.0958 173.261 33.0142L173.672 33.1691L175.438 32.0987L176.136 31.817L176.273 31.7184L176.957 31.8452L178.094 30.4367L178.587 30.1128L180.271 28.7043L180.435 28.6198C180.828 28.395 181.163 28.0772 181.413 27.6927C181.663 27.3082 181.821 26.868 181.873 26.4085L182.201 26.0705L182.338 24.6621L182.585 24.0846L182.667 23.2677C182.516 22.3081 182.225 21.3774 181.804 20.5071ZM178.19 24.5776L176.944 25.986L176.848 26.0705L176.615 25.9719L176.15 26.479L175.506 26.0142L174.849 27.7607C174.681 27.8577 174.528 27.9813 174.397 28.1269H173.343L172.932 28.479H172.631L171.878 28.9156C171.454 28.9991 171.049 29.1665 170.687 29.4085C170.52 29.4485 170.359 29.51 170.208 29.5916L169.455 29.4508L168.524 29.6621L168.195 29.2818L166.525 29.7747C166.244 29.7058 165.977 29.5917 165.731 29.4367V29.0142L165.347 28.5353V28.2395L165.416 27.9438C165.406 27.7721 165.444 27.601 165.525 27.4508C165.91 26.7022 166.125 25.8742 166.155 25.0283L166.47 24.817L166.744 23.817L167.401 23.4931V22.5916C167.51 22.4406 167.606 22.2804 167.689 22.1128L168.578 21.6762L168.77 20.6621C169.058 20.4367 169.332 20.2395 169.578 20.0283H170.016L170.427 19.8029H170.742L170.988 19.7043C171.4 19.5459 171.78 19.312 172.111 19.0142C172.247 18.9983 172.38 18.9652 172.508 18.9156H172.672L173.097 19.0846L173.439 18.8733L173.767 18.9438C173.894 18.9667 174.024 18.9667 174.151 18.9438C174.897 19.0536 175.607 19.3485 176.218 19.8029L176.643 20.5071L176.834 20.3945L177.272 20.8593L177.409 21.5635L177.71 21.7043L177.861 22.1409L178.272 22.4508L178.368 22.7466L178.285 22.9015L178.436 23.9156L178.19 24.4508V24.5776Z" fill="#CEB071"/>
  <path d="M4.61394 41.3662C4.73737 41.3662 4.81971 41.5493 4.92942 41.6056C4.81971 41.6056 4.73737 41.4225 4.61394 41.3662Z" fill="#CEB071"/>
  <path d="M47.0427 20.4085V20.2958C47.0427 20.1549 47.0426 20.0141 47.1521 19.8732C47.2617 19.7324 47.1522 19.2817 47.0427 18.9859V18.662H46.9605C46.9605 18.5634 46.9605 18.4507 46.9605 18.3521C46.9605 18.2535 46.9605 18.1408 46.9605 18.0282H46.8647C46.8647 17.8451 46.7962 17.6761 46.7825 17.507C46.7825 17.1268 46.6866 16.7606 46.6319 16.3944V16.2817L46.536 16.169C46.5292 16.0941 46.5292 16.0186 46.536 15.9437C46.4915 15.8004 46.455 15.6546 46.4265 15.507C46.2349 15.1127 46.0568 14.7183 45.8652 14.3099L45.7693 14.1972V14.0845C45.7634 14.0519 45.7634 14.0185 45.7693 13.9859H45.6872L45.5366 13.6901L45.427 13.4789L45.3313 13.2394C45.0575 12.8028 44.7562 12.3803 44.5098 11.9296C44.3954 11.7094 44.231 11.521 44.0306 11.3803C43.9415 11.1645 43.8265 10.9611 43.6883 10.7746C43.2502 10.2958 42.9901 9.70423 42.5794 9.21127L41.4156 8.19718L40.9364 7.46479H40.8406C40.8473 7.42755 40.8473 7.38936 40.8406 7.35211C40.6215 7.19718 40.4709 6.90141 40.1423 6.91549C40.1423 6.91549 40.0191 6.91549 39.9643 6.78873L38.9786 5.71831L38.7732 5.49296V5.38028L38.0339 5.14085L37.9106 5.04226C37.9173 5.00501 37.9173 4.96682 37.9106 4.92958L37.7875 4.83099L37.6779 4.73239L37.5684 4.61972L37.363 4.50704L37.2398 4.40845H36.5005C36.2066 4.3532 35.943 4.18755 35.7611 3.94367C35.7611 3.94367 35.6653 3.94366 35.6243 3.85916L35.501 3.76057V3.60564L35.3778 3.52113L34.8576 3.39437C34.6636 3.22181 34.4157 3.12683 34.1593 3.12676C34.0731 3.13987 33.9854 3.13987 33.8992 3.12676C33.3332 2.8373 32.7528 2.57873 32.1604 2.35212C31.948 2.25346 31.7423 2.14054 31.5443 2.01408C31.4401 1.92232 31.3521 1.81273 31.2842 1.69014C30.9255 1.63094 30.5867 1.4809 30.2984 1.25353L29.8877 1.11268C29.6008 1.14072 29.312 1.14072 29.0251 1.11268C28.6692 1.11268 28.2996 1.1831 27.9573 0.985916C27.5235 0.767864 27.0629 0.611504 26.5882 0.521131C26.5822 0.48855 26.5822 0.45512 26.5882 0.422539H26.3691C25.8734 0.239798 25.3314 0.239798 24.8357 0.422539H24.7535L24.1922 0.309861L23.8773 0.21127L23.6445 0.0985911H23.2064H22.7273L21.7552 0H20.3861L19.7289 0.0985911C19.7208 0.130925 19.7208 0.164854 19.7289 0.197188H19.5235H19.3182C19.3054 0.203451 19.2913 0.206697 19.2771 0.206697C19.2629 0.206697 19.2489 0.203451 19.2361 0.197188L19.1128 0.309861H18.6473L18.5515 0.39437C18.5582 0.464625 18.5582 0.535379 18.5515 0.605634C18.5205 0.683472 18.4839 0.758802 18.4419 0.830986C18.4959 0.865432 18.5372 0.917275 18.5595 0.978421C18.5818 1.03957 18.5837 1.10658 18.5651 1.16902H18.3324C18.3248 1.20142 18.3248 1.2352 18.3324 1.26761H18.127L17.6752 1.38028L17.0317 1.60564C17.0317 2.07043 16.5937 2.15493 16.2377 2.23944C16.2377 2.23944 16.2376 2.23944 16.1692 2.23944V2.33803L15.6353 2.46479L15.293 2.56338L14.9781 2.69014L14.759 2.80282L14.6358 2.88733L14.3209 3.01409L14.1155 3.14084L13.7869 3.23944L13.6501 3.32394L13.4447 3.45071L13.3078 3.61972H12.9928L12.7601 3.81691H12.5684C12.5625 3.84474 12.5625 3.87357 12.5684 3.90141C12.2535 3.90141 12.0756 4.12676 11.8428 4.26761L11.706 4.35211L11.5006 4.49296L11.3773 4.57746C11.3709 4.60525 11.3709 4.63419 11.3773 4.66197H11.1993L11.0761 4.76056L10.8707 4.88733L10.7339 4.97183L10.5422 5.0986L10.3231 5.22536H10.1862L9.87131 5.56338L9.76176 5.67606H9.63858C9.52905 5.78874 9.41947 5.88733 9.32363 6L9.21416 6.09859H9.10461L9.02247 6.22535V6.42254H8.92662L8.72122 6.64789L8.62546 6.76057L8.5022 6.87324L8.39265 6.97183L8.28318 7.08451L8.18733 7.19718L7.96823 7.42254L7.83135 7.60564L7.7218 7.71831L7.61225 7.83099L7.50278 7.94367L7.40693 8.05634C7.2974 8.19718 7.18787 8.35212 7.06465 8.49296L6.9688 8.60563C6.9764 8.66642 6.9764 8.72795 6.9688 8.78873H6.87296L6.77711 8.91549L6.66756 9.01409L6.57179 9.12676L6.46224 9.23944L6.35269 9.35212C6.29945 9.41189 6.25351 9.4781 6.21581 9.5493L6.09255 9.74648L5.80501 9.90141C5.76321 9.96879 5.72665 10.0394 5.69554 10.1127L5.57229 10.3239C5.57003 10.4375 5.54 10.5486 5.48496 10.6471C5.42992 10.7456 5.35168 10.8282 5.25742 10.8873L5.03831 11.2113L4.90143 11.4085L4.81929 11.5352C4.61477 11.7396 4.38454 11.9149 4.13474 12.0563L3.61447 12.7465L3.40907 13.4085L3.2996 13.5211C3.29282 13.6525 3.29282 13.7841 3.2996 13.9155C3.1871 14.0502 3.08192 14.1913 2.98465 14.338L2.66978 14.9437C2.63673 14.9978 2.60011 15.0496 2.56023 15.0986C2.52008 15.1697 2.488 15.2453 2.46446 15.3239C2.41975 15.4288 2.38311 15.5371 2.35491 15.6479C2.35491 15.6479 2.35491 15.6479 2.35491 15.7606C2.35491 15.8732 2.35489 15.9718 2.24536 16.0845V16.1972L2.13581 16.3099V16.4225L2.02634 16.5211C2.02634 16.6338 2.12218 16.7746 2.02634 16.831C1.76621 17.1831 1.95788 17.5211 2.02634 17.8592C2.03227 17.8917 2.03227 17.9252 2.02634 17.9577C2.03243 17.971 2.03553 17.9854 2.03553 18C2.03553 18.0146 2.03243 18.029 2.02634 18.0423C1.73883 18.1127 1.65666 17.8451 1.49237 17.7183C1.5057 17.232 1.61271 16.7533 1.80723 16.3099V16.2254H1.60192C1.60192 16.493 1.60185 16.7606 1.27326 16.8732C1.20481 16.8732 1.19118 17.0704 1.16379 17.1831C1.22147 17.2859 1.25179 17.4025 1.25179 17.5211C1.25179 17.6398 1.22147 17.7564 1.16379 17.8592C1.17044 17.8917 1.17044 17.9252 1.16379 17.9577L1.06795 18.1831C1.0755 18.2155 1.0755 18.2493 1.06795 18.2817V18.7042H0.972098C0.972098 18.8451 0.972098 18.9859 0.972098 19.1268L0.87625 19.2394V19.5634V19.8873C0.916662 19.9338 0.939007 19.994 0.939007 20.0563C0.939007 20.1187 0.916662 20.1789 0.87625 20.2254C0.87625 20.2254 0.87625 20.2254 0.87625 20.3239C0.87625 20.4225 0.876217 20.5775 0.67085 20.4507C0.677675 20.5539 0.677675 20.6574 0.67085 20.7606C0.677544 20.7978 0.677544 20.836 0.67085 20.8732C0.697066 20.9463 0.729132 21.0169 0.766698 21.0845H0.67085C0.664319 21.1924 0.664319 21.3006 0.67085 21.4085L0.575086 21.6338L0.465534 21.7324V22.2676C0.465534 22.3803 0.465544 22.493 0.561382 22.6056L0.643525 23.1408L0.547677 23.2535L0.342277 23.1549L0.219104 22.831C0.219104 23.0141 0.219081 23.1972 0.109552 23.3662C0.116246 23.4034 0.116246 23.4416 0.109552 23.4789C0.153378 23.6075 0.166312 23.7451 0.147239 23.88C0.128167 24.0149 0.0776326 24.1431 0 24.2535C0.00669389 24.2908 0.00669389 24.329 0 24.3662C0.164293 24.5211 0.28755 24.6761 0.123257 24.9014C-0.0410365 25.1268 0.0547777 25.2817 0.0137045 25.4648V25.662H0.123257L0.287543 26.2676C0.287543 26.4366 0.383361 26.6056 0.438125 26.7746C0.492889 26.9437 0.438125 27.0845 0.438125 27.1831C0.438125 27.2817 0.438125 27.5775 0.438125 27.7465V28.2958C0.438125 28.2958 0.438125 28.2958 0.438125 28.3944H0.547677V28.6197H0.657229C0.657229 28.6197 0.657229 28.7042 0.657229 28.7324V28.831L0.780402 29.0563H0.87625V29.169H0.780402C0.773708 29.2063 0.773708 29.2444 0.780402 29.2817L0.684555 29.3803C0.654236 29.495 0.617729 29.6078 0.575086 29.7183C0.568438 29.7508 0.568438 29.7844 0.575086 29.8169L0.780402 30.0423L0.903659 30.3662H1.01313L1.10898 30.4789C1.10898 30.4789 1.10898 30.6197 1.10898 30.6901L1.20482 30.8169V31.1268C1.2292 31.1705 1.26178 31.2088 1.30067 31.2394V31.3521H1.12268C1.05885 31.1903 0.980976 31.0347 0.889955 30.8873C0.889955 30.8873 0.752997 30.8873 0.67085 30.8169L0.780402 31.1549C0.803937 31.2335 0.8361 31.3091 0.87625 31.3803C0.87625 31.3803 0.87625 31.3803 0.87625 31.4789C0.919419 31.5145 0.95647 31.5574 0.985802 31.6056C0.985802 31.7465 0.917323 31.8873 0.87625 32.0282L0.985802 32.1408H1.28697C1.28697 32.1408 1.28697 32.2817 1.28697 32.3521L1.38281 32.4648C1.38281 32.6479 1.38281 32.831 1.38281 33.0141C1.38281 33.1972 1.60184 33.5211 1.69768 33.7746L1.80723 33.8873V33.9859L1.91679 34.0986C1.91679 34.2394 1.91678 34.3944 1.82094 34.5352H1.93049L2.02634 34.3239H2.13581L2.46446 34.8592C2.57523 34.8946 2.67026 34.9692 2.73287 35.0696C2.79548 35.1701 2.82165 35.2901 2.80674 35.4085L2.68348 35.7465V35.8451C2.68348 35.9577 2.68348 36.0704 2.68348 36.169H2.77933L2.88888 36.3803H2.76563C2.81021 36.451 2.84697 36.5265 2.87518 36.6056C2.87518 36.5211 2.95727 36.4507 2.98465 36.3803H3.2996L3.43648 36.7746C3.43648 36.9014 3.32696 36.9577 3.19005 36.8873L2.98465 36.8028C2.98465 36.9577 3.06682 37.0986 3.0942 37.2394L3.20375 37.3521L3.53233 37.6761C3.5722 37.71 3.6089 37.7477 3.64188 37.7887L3.75135 37.9014L3.8609 38C3.8962 38.0292 3.92834 38.0623 3.95675 38.0986L4.09362 38.2254H4.13474V38.2958L4.31273 38.4366C4.31273 38.4366 4.31273 38.5211 4.31273 38.5493L4.40858 38.6479H4.53175V38.8169H4.61389C4.73711 38.9577 4.86034 39.0845 4.96987 39.2254V39.4507C4.96987 39.6338 5.03835 39.8169 5.07943 40H5.18898L5.408 40.1127L5.6271 40.2253H5.73657L5.95568 40.6479L6.07885 40.9718L6.50327 41.0986L7.17412 41.6197L7.29738 41.7183C8.15733 42.4583 9.07293 43.1271 10.0356 43.7183C10.0356 43.7183 10.0356 43.831 10.0356 43.8592L10.9529 44.4789C10.9958 44.5571 11.0604 44.6203 11.1385 44.6604C11.2165 44.7006 11.3045 44.7158 11.391 44.7042L11.7333 44.9155L12.0482 45.0282L12.1577 45.1408L12.4863 45.3662L12.3768 45.4648L12.7054 45.6901L13.0339 45.3521V45.4648C13.0738 45.4987 13.1105 45.5364 13.1435 45.5775V45.8592L13.4721 45.9718L13.9102 45.7465V46.0845H14.0197V46.1831L14.2388 46.2958L14.6769 46.4084H14.8822L15.2109 46.0704H15.4436L15.5531 46.169L15.3066 46.338L15.115 46.493L15.4436 46.6056L15.6626 46.7183H15.7722L16.2103 46.831C16.2752 46.853 16.3308 46.8971 16.3681 46.9559C16.4055 47.0148 16.4222 47.085 16.4156 47.1549L16.6347 47.0563L17.1824 47.1549H17.2919C17.7149 47.2011 18.1222 47.3456 18.483 47.5775H19.3455C19.3455 47.5775 19.3455 47.5775 19.3455 47.6761H19.6605C19.6669 47.6483 19.6669 47.6193 19.6605 47.5915L19.7562 47.6761C19.7961 47.71 19.8328 47.7477 19.8658 47.7887H20.8516C20.8516 47.6056 20.8515 47.4225 20.9611 47.2394L21.1802 47.5634V47.7887L21.2897 47.8873C21.3479 47.8579 21.415 47.8532 21.4765 47.8743C21.538 47.8954 21.5889 47.9405 21.6183 48H22.604C22.8094 47.7887 22.604 47.7042 22.4397 47.6479C22.5425 47.5011 22.6889 47.3927 22.857 47.3393C23.025 47.2859 23.2054 47.2904 23.3707 47.3521L23.5898 47.4507C23.5867 47.4905 23.5755 47.5293 23.5567 47.5643C23.538 47.5993 23.5122 47.6298 23.4811 47.6538C23.45 47.6777 23.4144 47.6946 23.3765 47.7033C23.3386 47.712 23.2992 47.7123 23.2612 47.7042C23.0421 47.7042 22.9463 47.8028 22.9326 48H23.6993L23.9457 47.8873L23.8225 47.3521H24.8904L25.2327 47.1408C25.2638 47.0676 25.3004 46.997 25.3422 46.9296L25.6571 46.6901H26.0405C26.0405 46.7746 26.1637 46.8451 26.0405 46.9577C25.9814 47.0441 25.9353 47.139 25.9036 47.2394C26.2733 47.2394 26.4512 46.9296 26.6429 46.6761L27.0947 46.5634L27.2179 46.6901L26.7525 46.9437L26.8893 47.2394H26.9852L27.2042 47.1268H27.4096C27.4917 47.0422 27.5739 46.9014 27.7108 47.0423C27.8477 47.1831 27.7108 47.1831 27.7108 47.2394C27.7108 47.2958 27.7108 47.3099 27.7108 47.3521V47.4648C27.7828 47.4539 27.8563 47.469 27.9187 47.5075C27.9811 47.546 28.0285 47.6056 28.053 47.6761H28.1489C28.1888 47.6421 28.2255 47.6044 28.2584 47.5634C28.3353 47.5344 28.4088 47.4966 28.4775 47.4507L28.587 47.3521L28.8061 47.2394L29.0251 47.1268V47.0282L29.2579 46.9296H29.3674L29.2579 47.2535C29.2579 47.2535 29.2579 47.3239 29.2579 47.3521H29.477L29.696 47.2394L29.8329 47.1268L30.052 46.5634L30.1752 46.4789C30.5559 46.4376 30.9266 46.328 31.2705 46.1549L31.38 46.0423L32.3658 45.7042L32.4753 45.5915L32.8997 45.4789C32.8931 45.4464 32.8931 45.4128 32.8997 45.3803H32.886C32.9115 45.3453 32.9446 45.3169 32.9826 45.2973C33.0207 45.2778 33.0625 45.2676 33.1051 45.2676C33.1476 45.2676 33.1895 45.2778 33.2276 45.2973C33.2656 45.3169 33.2987 45.3453 33.3242 45.3803C33.3571 45.3393 33.3938 45.3015 33.4337 45.2676L33.7623 45.169C33.7915 45.1246 33.8286 45.0864 33.8718 45.0563C33.9402 45.0563 34.0087 44.9014 34.0909 44.831V44.6197H33.6527L33.5432 44.7183L33.4337 44.831C33.3938 44.8649 33.3571 44.9026 33.3242 44.9437L33.2146 45.0563L32.886 45.1549L32.667 45.2676C32.5164 45.2676 32.3931 45.2676 32.4342 45.0423C32.4753 44.8169 32.4342 45.0423 32.4342 44.9437H32.6533L32.7628 44.8451H32.886V44.7324L32.9956 44.6338C32.9938 44.601 32.9938 44.5681 32.9956 44.5352L33.1051 44.4366C32.9379 44.3743 32.7571 44.361 32.583 44.3983C32.4089 44.4357 32.2484 44.5221 32.1193 44.6479C32.2484 44.5221 32.4089 44.4357 32.583 44.3983C32.7571 44.361 32.9379 44.3743 33.1051 44.4366H33.42L33.6527 44.338V44.2253H33.7623L33.8855 44.1268L34.1046 44.0141C34.1375 43.9731 34.1742 43.9353 34.214 43.9014H34.3236C34.3176 43.8736 34.3176 43.8447 34.3236 43.8169H34.392H34.5153L34.7207 43.6901L34.9397 43.5775C34.9796 43.5435 35.0163 43.5058 35.0493 43.4648L35.3778 43.3521L35.4874 43.2394L35.6927 43.1268C35.7583 43.0172 35.8484 42.9255 35.9557 42.8593C36.0629 42.7932 36.184 42.7545 36.3088 42.7465C36.4046 42.7465 36.4868 42.6338 36.5689 42.5775C37.0304 42.3723 37.4669 42.1123 37.8696 41.8028L38.2119 41.3803L38.3214 41.2676L38.4309 41.1549L38.5405 41.0563C38.6313 41.0256 38.7112 40.9676 38.7698 40.8898C38.8283 40.812 38.8629 40.7179 38.869 40.6197C38.5131 40.6197 38.5131 40.6197 38.4309 40.1831C38.4234 40.1507 38.4234 40.1169 38.4309 40.0845L38.7322 39.8451L39.2798 38.9718C40.0054 38.1549 40.7448 37.3521 41.3882 36.4789H41.4841L41.5798 36.3521C41.6216 36.2847 41.6583 36.2141 41.6894 36.1408L41.9358 35.8451H42.018C42.0247 35.7748 42.0247 35.7041 42.018 35.6338H42.1138C42.1072 35.5683 42.1072 35.5022 42.1138 35.4366H42.4698L42.5794 35.2113L42.7025 35L43.5514 33.9014C43.6335 33.6901 43.7157 33.4648 43.8115 33.2535L44.3729 32.169L44.674 31.7183L44.7973 31.3944L44.9069 31.169L45.0026 30.9577L45.783 28.8732C45.783 28.5915 45.783 28.3099 45.783 28.0282H45.8652L46.1937 26.9296C46.2219 26.8188 46.2586 26.7105 46.3033 26.6056L46.4676 25.5916L46.5497 24.9859H46.6319C46.7459 24.3831 46.7919 23.7686 46.7688 23.1549C46.9968 22.7251 47.0878 22.2324 47.029 21.7465C46.9817 21.3913 46.9817 21.0312 47.029 20.6761L47.0427 20.4085ZM0.492943 25.831C0.383414 25.9577 0.328573 26.0282 0.328573 26.0845C0.328573 26.1408 0.32865 25.9577 0.492943 25.831ZM32.4479 13.2817C32.9612 13.2817 33.4536 13.4905 33.8179 13.8625C34.1821 14.2345 34.3884 14.7396 34.392 15.2676C34.392 15.5302 34.3417 15.7903 34.244 16.033C34.1463 16.2756 34.0031 16.4961 33.8226 16.6818C33.6421 16.8675 33.4277 17.0149 33.1919 17.1154C32.956 17.2159 32.7032 17.2676 32.4479 17.2676C32.1932 17.2676 31.9411 17.2158 31.706 17.1151C31.4709 17.0144 31.2575 16.8669 31.078 16.681C30.8986 16.4951 30.7567 16.2745 30.6605 16.0319C30.5643 15.7893 30.5157 15.5296 30.5175 15.2676C30.5173 15.0008 30.5694 14.7367 30.6707 14.491C30.7719 14.2454 30.9203 14.0232 31.1069 13.8379C31.2934 13.6525 31.5144 13.5077 31.7566 13.4122C31.9988 13.3166 32.2571 13.2722 32.5163 13.2817H32.4479ZM25.4244 2.11268C25.4244 2.22535 25.5065 2.33803 25.5339 2.43662C25.5613 2.53521 25.5339 2.22535 25.4244 2.11268ZM18.4282 2.35212H18.8253H18.4282ZM8.66649 39.8873C8.78327 40.0898 8.92096 40.2787 9.0772 40.4507C8.92096 40.2787 8.78327 40.0898 8.66649 39.8873ZM9.13202 42.507C9.25246 42.7026 9.38992 42.8864 9.54274 43.0563C9.38992 42.8864 9.25246 42.7026 9.13202 42.507ZM9.73443 42.2535H9.8576H9.73443ZM10.6927 43.3239L10.816 43.3944L10.6927 43.3239ZM41.265 29.8451C40.4983 31.9437 38.1845 31.9437 32.5849 31.9437H26.8619C26.8619 35.3944 26.8619 36.0282 26.7935 36.831C26.7935 37.169 26.7935 37.5352 26.7935 38.2394C26.7632 38.9959 26.551 39.7328 26.1759 40.3842C25.8007 41.0356 25.2744 41.5811 24.644 41.9718C23.8962 42.4524 23.0338 42.7107 22.1522 42.7183C21.5177 42.7194 20.8911 42.575 20.3176 42.2958C19.996 42.1369 19.7473 41.8552 19.6245 41.5106C19.5018 41.166 19.5147 40.7857 19.6605 40.4507C19.8173 40.1223 20.0922 39.8696 20.4269 39.7461C20.7617 39.6225 21.13 39.6378 21.454 39.7887C21.7396 39.9102 22.0496 39.9583 22.3573 39.9289C22.6651 39.8994 22.9612 39.7933 23.2201 39.6197C23.4644 39.4734 23.6712 39.2693 23.8236 39.0244C23.976 38.7795 24.0695 38.5007 24.0964 38.2113C24.0964 37.5211 24.0964 37.1268 24.0964 36.8028C24.0964 36.0423 24.0964 35.3944 24.0964 31.9718C21.7481 31.6645 19.5758 30.5297 17.9491 28.7606C16.9457 27.579 16.1698 26.212 15.6626 24.7324C14.988 26.4948 13.9019 28.0592 12.5003 29.2874C11.0987 30.5156 9.4246 31.3698 7.62595 31.7746H7.33849C7.022 31.7826 6.71262 31.6775 6.46299 31.4772C6.21337 31.2769 6.03893 30.9938 5.96938 30.6761C5.89948 30.318 5.96742 29.9461 6.15899 29.6386C6.35056 29.3312 6.65079 29.1123 6.99621 29.0282C10.1862 28.3239 12.4726 26.0704 13.5816 22.3521C14.0428 20.835 14.3142 19.2637 14.3894 17.6761C14.3894 17.3239 14.3894 17.0704 14.3894 16.9014H10.0767C9.7136 16.9014 9.3653 16.753 9.10854 16.4889C8.85178 16.2247 8.7076 15.8665 8.7076 15.493C8.7076 15.1194 8.85178 14.7612 9.10854 14.497C9.3653 14.2329 9.7136 14.0845 10.0767 14.0845H14.4031V9.23944C14.4031 8.86589 14.5473 8.50765 14.8041 8.24351C15.0608 7.97938 15.4091 7.83099 15.7722 7.83099C16.1353 7.83099 16.4835 7.97938 16.7403 8.24351C16.997 8.50765 17.1413 8.86589 17.1413 9.23944V14.1831H21.5087C21.8718 14.1831 22.2201 14.3315 22.4768 14.5956C22.7336 14.8598 22.8778 15.218 22.8778 15.5915C22.8778 15.9651 22.7336 16.3233 22.4768 16.5875C22.2201 16.8516 21.8718 17 21.5087 17H17.1413C17.1413 17.3239 17.1413 17.662 17.1413 18.0141C17.1413 19.9296 17.552 24.1408 19.989 26.8169C21.2239 28.1393 22.8719 28.972 24.644 29.169C26.2368 25.6546 28.5266 22.5218 31.3663 19.9718C31.648 19.7471 31.9816 19.6016 32.3345 19.5498C32.6874 19.4979 33.0473 19.5414 33.3789 19.6761C35.0757 20.9217 36.6243 22.3683 37.9928 23.9859C41.5525 27.9014 41.5662 29.0282 41.265 29.8451Z" fill="#CEB071"/>
  <path d="M32.6118 22.3945C30.623 24.3869 28.9301 26.6695 27.5876 29.1692H32.5845C34.5502 29.2493 36.5189 29.1645 38.4712 28.9157C36.7543 26.5293 34.7895 24.3427 32.6118 22.3945Z" fill="#CEB071"/>
</svg>